<svg width="79" height="79" viewBox="0 0 79 79" fill="none" xmlns="http://www.w3.org/2000/svg">
<rect width="79" height="79" rx="39.5" fill="white"/>
<path d="M17.9365 41.2385C17.4357 46.9635 19.194 52.6499 22.8248 57.0467C26.4555 61.4435 31.6613 64.1906 37.2968 64.6837C38.346 52.6914 29.6706 42.2651 17.9365 41.2385ZM40.7592 25.1091C42.3246 25.2461 43.7706 26.0092 44.7792 27.2305C45.7877 28.4518 46.2761 30.0314 46.137 31.6217C45.9979 33.2119 45.2426 34.6827 44.0373 35.7103C42.832 36.738 41.2754 37.2384 39.71 37.1014C38.1445 36.9645 36.6985 36.2014 35.6899 34.98C34.6814 33.7587 34.193 32.1791 34.3321 30.5889C34.4712 28.9986 35.2265 27.5279 36.4318 26.5002C37.6371 25.4726 39.1937 24.9722 40.7592 25.1091ZM24.6521 35.1798C24.513 36.7701 25.0014 38.3496 26.01 39.571C27.0185 40.7923 28.4646 41.5554 30.03 41.6924C31.2813 41.8018 32.4739 41.4953 33.4277 40.9262L33.3878 41.3819C33.2487 42.9722 33.7371 44.5517 34.7457 45.7731C35.7542 46.9944 37.2003 47.7575 38.7657 47.8945C40.3311 48.0314 41.8877 47.531 43.093 46.5034C44.2983 45.4757 45.0536 44.005 45.1927 42.4147L45.2326 41.959C46.0731 42.6851 47.1943 43.194 48.4457 43.3035C50.0111 43.4405 51.5677 42.9401 52.773 41.9124C53.9783 40.8848 54.7336 39.414 54.8727 37.8238C55.0825 35.4253 53.8679 33.2648 51.9686 32.1319C54.0358 31.346 55.6092 29.4052 55.817 27.0307C55.9561 25.4404 55.4677 23.8609 54.4591 22.6396C53.4506 21.4182 52.0045 20.6551 50.4391 20.5182C49.1878 20.4087 47.9973 20.6912 47.0414 21.2843L47.0813 20.8286C47.2204 19.2383 46.732 17.6588 45.7234 16.4374C44.7149 15.2161 43.2689 14.453 41.7034 14.3161C40.138 14.1791 38.5814 14.6795 37.3761 15.7071C36.1708 16.7348 35.4155 18.2055 35.2764 19.7958L35.2365 20.2515C34.3981 19.5015 33.2748 19.0165 32.0235 18.907C30.458 18.7701 28.9015 19.2704 27.6961 20.2981C26.4908 21.3257 25.7355 22.7965 25.5964 24.3868C25.3887 26.7612 26.6012 28.9458 28.5005 30.0787C26.4333 30.8645 24.862 32.7814 24.6521 35.1798ZM37.2968 64.6837C42.9324 65.1767 48.5361 63.3753 52.8752 59.6758C57.2143 55.9762 59.9333 50.6816 60.4342 44.9566C48.6293 43.9238 38.346 52.6914 37.2968 64.6837Z" fill="#42A951"/>
</svg>
